<?xml version="1.0" encoding="UTF-8"?>
<svg width="13px" height="15px" viewBox="0 0 13 15" version="1.1" xmlns="http://www.w3.org/2000/svg" xmlns:xlink="http://www.w3.org/1999/xlink">
    <!-- Generator: Sketch 48.1 (47250) - http://www.bohemiancoding.com/sketch -->
    <title>Group</title>
    <desc>Created with Sketch.</desc>
    <defs></defs>
    <g id="Page-1" stroke="none" stroke-width="1" fill="none" fill-rule="evenodd">
        <g id="Group" fill="#FFFFFF" fill-rule="nonzero">
            <path d="M11.9353774,3.7532021 L8.57970013,3.7532021 C8.77287171,3.6166351 8.9533921,3.4630007 9.11908738,3.2941491 C10.1175276,2.2957089 10.3906641,0.9988842 9.74339943,0.35621 C9.49727604,0.119582 9.1665977,-0.0085559 8.82529347,0.000444 C8.18032404,0.000444 7.42977243,0.3676864 6.81464144,0.9805221 C6.57441519,1.2174451 6.3667842,1.4852814 6.19721518,1.776979 C6.02914734,1.49228 5.8246754,1.2307102 5.58896999,0.9988842 C4.97613427,0.3860485 4.22328738,0.0188061 3.57831795,0.0188061 C3.23701373,0.0098062 2.90633539,0.1379441 2.660212,0.3745722 C2.01065204,1.0241321 2.28608382,2.314071 3.28452405,3.3125112 C3.45021933,3.4813628 3.63073972,3.6349972 3.82391129,3.7715642 L0.459052977,3.7715642 C0.205525018,3.7715642 0,3.9770892 0,4.2306172 L0,14.540947 C0,14.794475 0.205525018,15 0.459052977,15 L11.9353774,15 C12.1889053,15 12.3944304,14.794475 12.3944304,14.540947 L12.3944304,4.2122551 C12.3944304,3.9587271 12.1889053,3.7532021 11.9353774,3.7532021 Z M7.45502034,1.6392631 C7.88653014,1.2077533 8.42132686,0.927731 8.81611241,0.927731 C8.91633726,0.9210557 9.01542594,0.9521745 9.09383947,1.0149511 C9.30041331,1.2215249 9.16040215,1.9628955 8.46952742,2.6537702 C8.03801762,3.08528 7.5032209,3.3653023 7.10843534,3.3653023 C7.00821049,3.3719776 6.90912181,3.3408588 6.83070829,3.2780822 C6.62413445,3.0646226 6.76414561,2.3301378 7.45502034,1.6392631 Z M3.3005909,1.0149511 C3.37900442,0.9521745 3.4780931,0.9210557 3.57831795,0.927731 C3.97310351,0.927731 4.49642391,1.2077533 4.93941003,1.6392631 C5.62798949,2.3278426 5.77029592,3.0715084 5.56372208,3.2780822 C5.48530855,3.3408588 5.38621987,3.3719776 5.28599503,3.3653023 C4.89120947,3.3653023 4.36788907,3.08528 3.92490295,2.6537702 C3.23402822,1.9628955 3.09401706,1.2284107 3.3005909,1.0149511 Z M0.918105953,14.081894 L0.918105953,4.671308 L4.13147679,4.671308 L4.13147679,14.081894 L0.918105953,14.081894 Z M5.04958274,14.081894 L5.04958274,4.671308 L7.34484763,4.671308 L7.34484763,14.081894 L5.04958274,14.081894 Z M11.4763244,14.081894 L8.26295358,14.081894 L8.26295358,4.671308 L11.4763244,4.671308 L11.4763244,14.081894 Z" id="Shape"></path>
        </g>
    </g>
</svg>