<?xml version="1.0" encoding="UTF-8"?>
<svg width="24px" height="20px" viewBox="0 0 24 20" version="1.1" xmlns="http://www.w3.org/2000/svg" xmlns:xlink="http://www.w3.org/1999/xlink">
    <!-- Generator: Sketch 48.1 (47250) - http://www.bohemiancoding.com/sketch -->
    <title>Group Copy 2</title>
    <desc>Created with Sketch.</desc>
    <defs></defs>
    <g id="car-tab-selected" stroke="none" stroke-width="1" fill="none" fill-rule="evenodd" transform="translate(-39.000000, -23.000000)">
        <g id="Group-Copy-2" transform="translate(39.000000, 23.000000)" fill="#141413">
            <path d="M2.34720082,6.64852182 L3.25998973,2.44079462 C3.42886492,1.65994056 4.23749358,1.00109495 5.02516692,1.00109495 L17.6963534,1.00109495 C18.4821777,1.00109495 19.2834104,1.65994056 19.4455059,2.43954325 L20.3219312,6.64852182 L20.9906523,6.64852182 C21.1065229,6.64852182 21.2205444,6.65477866 21.3333333,6.66666667 L20.4106831,2.23306742 C20.1542886,1.00172063 18.9370313,0 17.6963534,0 L5.02516692,0 C3.78633796,0 2.56291731,0.99859221 2.29666153,2.22618489 L1.33333333,6.66666667 C1.4473549,6.65477866 1.56260914,6.64852182 1.67909605,6.64852182 L2.34720082,6.64852182 L2.34720082,6.64852182 Z" id="Fill-1"></path>
            <path d="M5.62791641,17.8156198 C5.62791641,18.5510136 4.89754514,19.1497507 3.99967539,19.1497507 C3.10180564,19.1497507 2.37143437,18.5510136 2.37143437,17.8156198 L2.37143437,17.3333333 L1.33333333,17.3333333 L1.33333333,17.8156198 C1.33333333,19.0205384 2.52984378,20 3.99967539,20 C5.47015622,20 6.66666667,19.0205384 6.66666667,17.8156198 L6.66666667,17.3333333 L5.62791641,17.3333333 L5.62791641,17.8156198 Z" id="Fill-3"></path>
            <path d="M21.6280428,17.8156198 C21.6280428,18.5510136 20.8977605,19.1497507 20,19.1497507 C19.1022395,19.1497507 18.371308,18.5510136 18.371308,17.8156198 L18.371308,17.3333333 L17.3333333,17.3333333 L17.3333333,17.8156198 C17.3333333,19.0205384 18.5296981,20 20,20 C21.4703019,20 22.6666667,19.0205384 22.6666667,17.8156198 L22.6666667,17.3333333 L21.6280428,17.3333333 L21.6280428,17.8156198 Z" id="Fill-5"></path>
            <path d="M23.0136902,15.0689361 L22.3565613,15.0689361 L22.0267639,15.0689361 L17.2918604,15.0689361 L6.70813962,15.0689361 L1.97261963,15.0689361 L1.64405517,15.0689361 L0.986309814,15.0689361 L0.986309814,13.113702 L0.986309814,8.87736143 C0.986309814,8.17149864 1.59473968,7.59714862 2.34248581,7.59714862 L21.6575142,7.59714862 C22.4052603,7.59714862 23.0136902,8.17149864 23.0136902,8.87736143 L23.0136902,13.7927967 L23.0136902,15.0689361 Z M22.2209437,6.7382422 C22.0390928,6.69576241 21.8523104,6.66666667 21.6575142,6.66666667 L21.1970308,6.66666667 L2.79310611,6.66666667 L2.34248581,6.66666667 C2.14214163,6.66666667 1.9510441,6.69750816 1.76549457,6.74231561 C0.753294121,6.98613796 0,7.84679012 0,8.87736143 L0,13.113702 L0,15.8690691 L0,16 L1.64405517,16 L2.63036499,16 L5.72182981,16 L6.70813962,16 L17.2918604,16 L18.2775537,16 L21.3702515,16 L22.3565613,16 L24,16 L24,15.8690691 L24,13.7927967 L24,8.87736143 C24,7.8421348 23.239925,6.97799115 22.2209437,6.7382422 L22.2209437,6.7382422 Z" id="Fill-7"></path>
            <path d="M3.33333333,12.3484149 C2.77377655,12.3484149 2.31825177,11.8928901 2.31825177,11.3333333 C2.31825177,10.773161 2.77377655,10.3176362 3.33333333,10.3176362 C3.89289012,10.3176362 4.3484149,10.773161 4.3484149,11.3333333 C4.3484149,11.8928901 3.89289012,12.3484149 3.33333333,12.3484149 M3.33333333,9.33333333 C2.23022468,9.33333333 1.33333333,10.2302247 1.33333333,11.3333333 C1.33333333,12.436442 2.23022468,13.3333333 3.33333333,13.3333333 C4.43644198,13.3333333 5.33333333,12.436442 5.33333333,11.3333333 C5.33333333,10.2302247 4.43644198,9.33333333 3.33333333,9.33333333" id="Fill-9"></path>
            <path d="M19.3333333,12.3484149 C18.7737765,12.3484149 18.3182518,11.8928901 18.3182518,11.3333333 C18.3182518,10.773161 18.7737765,10.3176362 19.3333333,10.3176362 C19.8928901,10.3176362 20.3484149,10.773161 20.3484149,11.3333333 C20.3484149,11.8928901 19.8928901,12.3484149 19.3333333,12.3484149 M19.3333333,9.33333333 C18.2302247,9.33333333 17.3333333,10.2302247 17.3333333,11.3333333 C17.3333333,12.436442 18.2302247,13.3333333 19.3333333,13.3333333 C20.2985534,13.3333333 21.1055709,12.6469683 21.2927054,11.7365343 C21.3191751,11.6060326 21.3333333,11.4712219 21.3333333,11.3333333 C21.3333333,11.1948292 21.3191751,11.0600185 21.2927054,10.9301323 C21.1055709,10.0196984 20.2985534,9.33333333 19.3333333,9.33333333" id="Fill-11"></path>
            <polygon id="Fill-13" points="8 13.025641 14.6666667 13.025641 14.6666667 12 8 12"></polygon>
        </g>
    </g>
</svg>