<?xml version="1.0" encoding="UTF-8"?>
<svg width="20px" height="16px" viewBox="0 0 20 16" version="1.1" xmlns="http://www.w3.org/2000/svg" xmlns:xlink="http://www.w3.org/1999/xlink">
    <!-- Generator: Sketch 47.1 (45422) - http://www.bohemiancoding.com/sketch -->
    <title>Shape</title>
    <desc>Created with Sketch.</desc>
    <defs></defs>
    <g id="001_Home" stroke="none" stroke-width="1" fill="none" fill-rule="evenodd">
        <g id="C_2_ResultsCard_Ent-Copy-6" transform="translate(-261.000000, -346.000000)" stroke="#000000" fill-rule="nonzero" fill="#141413">
            <g id="Group" transform="translate(24.000000, 332.000000)">
                <g id="heart-copy-4" transform="translate(232.000000, 6.000000)">
                    <path d="M22.1029036,9.70986927 C18.5277735,7.78963401 15.8910325,10.2757357 15.1013318,11.1724639 C14.3116312,10.2757357 11.6781943,7.78963401 8.09645587,9.70986927 C6.6393095,10.4921873 5.88265073,11.9578742 6.0148182,13.7296855 C6.24280709,16.7476398 9.10423284,20.7798246 14.9922937,22.981447 C15.0286397,22.9938157 15.0649858,23 15.1013318,23 C15.1376779,23 15.174024,22.9938157 15.21037,22.981447 C21.0951267,20.7798246 23.9598566,16.7507319 24.1845413,13.7327776 C24.320013,11.9578742 23.56005,10.4921873 22.1029036,9.70986927 Z M23.5997002,13.6956716 C23.3882323,16.5250038 20.6754949,20.3129075 15.1013318,22.4341336 C9.52716875,20.3098153 6.8144314,16.5219116 6.60296345,13.6925795 C6.48401272,12.1155746 7.11841659,10.8694316 8.3905285,10.1860629 C9.24961706,9.72533011 10.0459261,9.54598446 10.7629346,9.54598446 C13.2245538,9.54598446 14.7775215,11.657934 14.8601262,11.7754364 C14.9162974,11.8527405 15.0055104,11.8960308 15.104636,11.8960308 L15.104636,11.8960308 C15.2037616,11.8960308 15.2929747,11.8496483 15.3491459,11.7754364 C15.4548798,11.6270124 18.0024078,8.14214096 21.8154394,10.1860629 C23.0842471,10.8694316 23.718651,12.1155746 23.5997002,13.6956716 Z" id="Shape"></path>
                </g>
            </g>
        </g>
    </g>
</svg>