<?xml version="1.0" encoding="UTF-8"?>
<svg width="20px" height="16px" viewBox="0 0 20 16" version="1.1" xmlns="http://www.w3.org/2000/svg" xmlns:xlink="http://www.w3.org/1999/xlink">
    <!-- Generator: Sketch 48.1 (47250) - http://www.bohemiancoding.com/sketch -->
    <title>Group</title>
    <desc>Created with Sketch.</desc>
    <defs></defs>
    <g id="Page-1" stroke="none" stroke-width="1" fill="none" fill-rule="evenodd">
        <g id="Group" transform="translate(1.000000, 1.000000)" fill="#FFFFFF" fill-rule="nonzero" stroke="#FFFFFF">
            <path d="M16.1029036,0.70986927 C12.5277735,-1.21036599 9.8910325,1.2757357 9.1013318,2.1724639 C8.3116312,1.2757357 5.6781943,-1.21036599 2.09645587,0.70986927 C0.6393095,1.4921873 -0.11734927,2.9578742 0.0148182,4.7296855 C0.24280709,7.7476398 3.10423284,11.7798246 8.9922937,13.981447 C9.0286397,13.9938157 9.0649858,14 9.1013318,14 C9.1376779,14 9.174024,13.9938157 9.21037,13.981447 C15.0951267,11.7798246 17.9598566,7.7507319 18.1845413,4.7327776 C18.320013,2.9578742 17.56005,1.4921873 16.1029036,0.70986927 Z M17.5997002,4.6956716 C17.3882323,7.5250038 14.6754949,11.3129075 9.1013318,13.4341336 C3.52716875,11.3098153 0.8144314,7.5219116 0.60296345,4.6925795 C0.48401272,3.1155746 1.11841659,1.8694316 2.3905285,1.1860629 C3.24961706,0.72533011 4.0459261,0.54598446 4.7629346,0.54598446 C7.2245538,0.54598446 8.7775215,2.657934 8.8601262,2.7754364 C8.9162974,2.8527405 9.0055104,2.8960308 9.104636,2.8960308 C9.2037616,2.8960308 9.2929747,2.8496483 9.3491459,2.7754364 C9.4548798,2.6270124 12.0024078,-0.85785904 15.8154394,1.1860629 C17.0842471,1.8694316 17.718651,3.1155746 17.5997002,4.6956716 Z" id="Shape"></path>
        </g>
    </g>
</svg>