<?xml version="1.0" encoding="UTF-8"?>
<svg width="30px" height="27px" viewBox="0 0 30 27" version="1.1" xmlns="http://www.w3.org/2000/svg" xmlns:xlink="http://www.w3.org/1999/xlink">
    <!-- Generator: Sketch 48.1 (47250) - http://www.bohemiancoding.com/sketch -->
    <title>Icon_Ents</title>
    <desc>Created with Sketch.</desc>
    <defs></defs>
    <g id="headers" stroke="none" stroke-width="1" fill="none" fill-rule="evenodd" transform="translate(-504.000000, -1572.000000)" stroke-linecap="round">
        <g id="Group-7" transform="translate(307.000000, 1572.000000)" stroke="#000000" stroke-width="0.75">
            <g id="Icon_Ents" transform="translate(197.000000, 0.000000)">
                <path d="M2.4147,11.72 L12.1567,9.121" id="Stroke-1"></path>
                <path d="M12.7643,11.3982 L10.2013,1.7912 L7.8703,2.4132 C8.1853,3.7912 7.3633,5.1822 5.9863,5.5492 C4.6093,5.9172 3.2023,5.1202 2.7903,3.7682 L0.4593,4.3902 L5.8173,24.4742 C5.9533,24.9842 6.4773,25.2872 6.9873,25.1512 L10.5583,24.1982" id="Stroke-2"></path>
                <path d="M26.3405,3.6199 C25.7125,5.0349 24.0775,5.7149 22.6295,5.1329 C21.1815,4.5509 20.4715,2.9289 20.9975,1.4729 L18.5455,0.4879 L10.0235,21.6969 C9.8265,22.1869 10.0645,22.7439 10.5545,22.9409 L19.0275,26.3449 C19.5175,26.5419 20.0735,26.3039 20.2705,25.8139 L28.7925,4.6049 L26.3405,3.6199 Z" id="Stroke-4"></path>
                <path d="M15.4474,8.1975 L25.6944,12.3145" id="Stroke-6"></path>
            </g>
        </g>
    </g>
</svg>