<?xml version="1.0" encoding="UTF-8"?>
<svg width="21px" height="24px" viewBox="0 0 21 24" version="1.1" xmlns="http://www.w3.org/2000/svg" xmlns:xlink="http://www.w3.org/1999/xlink">
    <!-- Generator: Sketch 48.1 (47250) - http://www.bohemiancoding.com/sketch -->
    <title>Group</title>
    <desc>Created with Sketch.</desc>
    <defs></defs>
    <g id="Page-1" stroke="none" stroke-width="1" fill="none" fill-rule="evenodd">
        <g id="Group" stroke="#FFFFFF" stroke-width="0.75">
            <path d="M16.2029,0.5762 L16.2029,4.9302" id="Stroke-1"></path>
            <path d="M3.9655,0.375 L3.9655,4.729" id="Stroke-3"></path>
            <path d="M0.3752,8.1304 L19.7932,8.1304" id="Stroke-5"></path>
            <path d="M2.1701,23.5029 C1.1791,23.5029 0.3751,22.6989 0.3751,21.7079 L0.3751,3.8899 C0.3751,3.1909 0.8901,2.6239 1.5251,2.6239 L18.6431,2.6239 C19.2781,2.6239 19.7941,3.1909 19.7941,3.8899 L19.7941,21.7079 C19.7941,22.6989 18.9901,23.5029 17.9981,23.5029 L2.1701,23.5029 Z" id="Stroke-7"></path>
            <path d="M6.5266,10.6709 L9.2196,10.6709" id="Stroke-9"></path>
            <path d="M10.7776,10.6709 L13.4706,10.6709" id="Stroke-11"></path>
            <path d="M15.3713,10.6709 L18.0643,10.6709" id="Stroke-13"></path>
            <path d="M2.1047,13.8613 L4.7967,13.8613" id="Stroke-15"></path>
            <path d="M6.5266,13.8613 L9.2196,13.8613" id="Stroke-17"></path>
            <path d="M10.7776,13.8613 L13.4706,13.8613" id="Stroke-19"></path>
            <path d="M15.3713,13.8613 L18.0643,13.8613" id="Stroke-21"></path>
            <path d="M2.1047,17.0518 L4.7967,17.0518" id="Stroke-23"></path>
            <path d="M6.5266,17.0518 L9.2196,17.0518" id="Stroke-25"></path>
            <path d="M10.7776,17.0518 L13.4706,17.0518" id="Stroke-27"></path>
            <path d="M15.3713,17.0518 L18.0643,17.0518" id="Stroke-29"></path>
            <path d="M2.1047,20.2422 L4.7967,20.2422" id="Stroke-31"></path>
            <path d="M6.5266,20.2422 L9.2196,20.2422" id="Stroke-33"></path>
            <path d="M10.7776,20.2422 L13.4706,20.2422" id="Stroke-35"></path>
        </g>
    </g>
</svg>