<?xml version="1.0" encoding="UTF-8"?>
<svg width="20px" height="13px" viewBox="0 0 20 13" version="1.1" xmlns="http://www.w3.org/2000/svg" xmlns:xlink="http://www.w3.org/1999/xlink">
    <!-- Generator: Sketch 48.1 (47250) - http://www.bohemiancoding.com/sketch -->
    <title>menu-white</title>
    <desc>Created with Sketch.</desc>
    <defs></defs>
    <g id="headers" stroke="none" stroke-width="1" fill="none" fill-rule="evenodd" transform="translate(-981.000000, -452.000000)">
        <g id="Group-5-Copy" transform="translate(901.000000, 448.000000)" fill="#FFFFFF">
            <g id="menu-white" transform="translate(80.000000, 4.000000)">
                <path d="M0.547438017,12 C0.245289256,12 5.32907052e-15,12.1682578 5.32907052e-15,12.374821 C5.32907052e-15,12.5817422 0.245289256,12.75 0.547438017,12.75 L19.452562,12.75 C19.7547107,12.75 20,12.5817422 20,12.374821 C20,12.1682578 19.7547107,12 19.452562,12 L0.547438017,12 Z" id="Fill-3"></path>
                <path d="M19.452562,6 L0.547438017,6 C0.245289256,6 -5.32907052e-15,6.16825776 -5.32907052e-15,6.374821 C-5.32907052e-15,6.58174224 0.245289256,6.75 0.547438017,6.75 L19.452562,6.75 C19.7547107,6.75 20,6.58174224 20,6.374821 C20,6.16825776 19.7547107,6 19.452562,6" id="Fill-5"></path>
                <path d="M19.452562,0 L0.547438017,0 C0.245289256,0 -5.32907052e-15,0.168257757 -5.32907052e-15,0.374821002 C-5.32907052e-15,0.581742243 0.245289256,0.75 0.547438017,0.75 L19.452562,0.75 C19.7547107,0.75 20,0.581742243 20,0.374821002 C20,0.168257757 19.7547107,0 19.452562,0" id="Fill-1"></path>
            </g>
        </g>
    </g>
</svg>