<?xml version="1.0" encoding="UTF-8"?>
<svg width="26px" height="22px" viewBox="0 0 26 22" version="1.1" xmlns="http://www.w3.org/2000/svg" xmlns:xlink="http://www.w3.org/1999/xlink">
    <!-- Generator: Sketch 48.1 (47250) - http://www.bohemiancoding.com/sketch -->
    <title>Group 4 Copy 2</title>
    <desc>Created with Sketch.</desc>
    <defs></defs>
    <g id="flight-tab-selected" stroke="none" stroke-width="1" fill="none" fill-rule="evenodd" transform="translate(-30.000000, -23.000000)">
        <g id="Group-4-Copy-2" transform="translate(30.000000, 23.000000)" fill="#141413">
            <path d="M10.9852479,7.76470588 L11.0771002,7.76470588 L11.4232325,7.76470588 L11.0667214,6.75812467 L8.95256365,0.782190355 L11.001854,0.782190355 L11.001854,0.391095178 L11.001854,0.391095178 L11.0060055,0.782190355 L11.4211567,0.782190355 L12.3926107,0.782190355 C13.0148186,0.782190355 13.9068748,1.27105933 14.3012685,1.82788109 L17.7210769,6.66083974 L18.5020802,7.76470588 L18.904258,7.76470588 L19.0012996,7.76470588 L19.5,7.76470588 L14.9924953,1.39474318 C14.4387874,0.612552822 13.2971214,0 12.3926107,0 L11.001854,0 L7.8,0 L10.5477823,7.76470588 L10.9852479,7.76470588 Z" id="Fill-1"></path>
            <path d="M23.7626247,8.35965574 L7.60059048,8.35965574 L6.1302453,8.35965574 C5.32939729,8.35965574 4.59030378,8.12090679 4.43395707,7.95619684 L3.93600017,7.43255871 L3.93600017,7.43255871 L3.93600017,7.43255871 L3.93551006,7.43202219 L3.93551006,7.43202219 L3.02095535,6.47058824 L1.28055677,6.47058824 L0.764465609,6.47058824 C0.49441221,6.47058824 0.261117441,6.5950596 0.123395108,6.81181145 C-0.0108964183,7.02212513 -0.0368725166,7.29252843 0.0518383095,7.55381098 L1.49522717,11.8244663 C1.83438679,12.8282849 2.86558888,13.6148151 3.84287831,13.6148151 L8.66217971,13.6148151 L10.7726152,13.6148151 L11.1857822,13.6148151 L11.312722,13.6148151 L11.5989492,13.6148151 L16.9372824,13.6148151 L17.5273809,13.6148151 C17.7479327,13.6148151 17.9140817,13.6759778 17.9626031,13.7746964 C18.0023024,13.8557101 17.9895594,14.0327599 17.8346831,14.2870678 L17.7209764,14.4737748 L14.3587871,19.9939723 C13.9867897,20.6050623 13.1442819,21.1415768 12.556634,21.1415768 L11.2470465,21.1415768 L11.2431256,21.1415768 L9.30766124,21.1415768 L11.30439,14.5826872 L11.3372277,14.4743113 L11.3053702,14.4743113 L10.9240607,14.4737748 L10.5108937,14.4737748 L8.21911569,22 L11.2431256,22 L12.556634,22 C13.4109045,22 14.4891577,21.3277474 15.0121104,20.4693242 L18.4875163,14.7629561 C18.5463301,14.6663835 18.5879899,14.5698109 18.6281794,14.4737748 C18.7526686,14.1733267 18.7874668,13.8793168 18.7296332,13.6148151 C18.7110088,13.5305823 18.6914042,13.4463496 18.6536653,13.369628 C18.4630106,12.979582 18.0527843,12.7563919 17.5273809,12.7563919 L16.9372824,12.7563919 L8.66217971,12.7563919 L3.84287831,12.7563919 C3.19396597,12.7563919 2.45585269,12.1935882 2.23039976,11.5267007 L0.812987,7.32901141 L1.28055677,7.32901141 L1.70695687,7.32901141 L1.80448977,7.32901141 L2.70483114,7.32901141 L3.39197245,8.05223294 L3.66398631,7.74266408 L3.39246257,8.05276945 L3.39295268,8.05276945 L3.89090958,8.57533456 C4.2918237,8.99703494 5.32155545,9.21807891 6.1302453,9.21807891 L7.60059048,9.21807891 L23.4381686,9.21807891 L25.2084642,11.1570423 C25.1305359,12.053558 24.4389835,12.7563919 23.6003967,12.7563919 L19.2246494,12.7563919 C19.2682696,12.8229197 19.3094393,12.8910571 19.3452177,12.9645596 C19.4456913,13.1695081 19.5045051,13.3889425 19.5314614,13.6148151 L23.6003967,13.6148151 C24.9237073,13.6148151 26,12.4360928 26,10.9869672 L26,10.8093809 L23.7626247,8.35965574 Z" id="Fill-4"></path>
        </g>
    </g>
</svg>