<?xml version="1.0" encoding="UTF-8"?>
<svg width="14px" height="27px" viewBox="0 0 14 27" version="1.1" xmlns="http://www.w3.org/2000/svg" xmlns:xlink="http://www.w3.org/1999/xlink">
    <!-- Generator: Sketch 48.1 (47250) - http://www.bohemiancoding.com/sketch -->
    <title>icon-travel-dark</title>
    <desc>Created with Sketch.</desc>
    <defs></defs>
    <g id="Page-1" stroke="none" stroke-width="1" fill="none" fill-rule="evenodd">
        <g id="icon-travel-dark" transform="translate(0.000000, 1.000000)">
            <path d="M12.3516,4.3486 L0.9596,4.3486 C0.4296,4.3486 -0.0004,4.7906 -0.0004,5.3366 L-0.0004,22.1346 C-0.0004,22.6796 0.4296,23.1216 0.9596,23.1216 L12.3516,23.1216 C12.8816,23.1216 13.3116,22.6796 13.3116,22.1346 L13.3116,5.3366 C13.3116,4.7906 12.8816,4.3486 12.3516,4.3486 M12.3516,5.0986 C12.4676,5.0986 12.5616,5.2056 12.5616,5.3366 L12.5616,22.1346 C12.5616,22.2656 12.4676,22.3716 12.3516,22.3716 L0.9596,22.3716 C0.8446,22.3716 0.7496,22.2656 0.7496,22.1346 L0.7496,5.3366 C0.7496,5.2056 0.8446,5.0986 0.9596,5.0986 L12.3516,5.0986" id="Fill-1" fill="#FFFFFF" fill-rule="nonzero"></path>
            <path d="M2.4937,24.7837 L2.4937,23.1837" id="Stroke-4" stroke="#FFFFFF" stroke-width="0.75" stroke-linecap="round"></path>
            <path d="M11.4551,24.7837 L11.4551,23.1837" id="Stroke-6" stroke="#FFFFFF" stroke-width="0.75" stroke-linecap="round"></path>
            <path d="M4.8941,4.3486 L4.8941,1.2916 C4.8941,0.7856 5.3241,0.3746 5.8541,0.3746 L7.2801,0.3746 C7.8101,0.3746 8.2401,0.7856 8.2401,1.2916 L8.2401,4.3486" id="Stroke-8" stroke="#FFFFFF" stroke-width="0.75" stroke-linecap="round"></path>
            <path d="M2.9912,7.522 L2.9912,19.209" id="Stroke-10" stroke="#FFFFFF" stroke-width="0.75" stroke-linecap="round"></path>
            <path d="M6.7134,7.522 L6.7134,19.209" id="Stroke-12" stroke="#FFFFFF" stroke-width="0.75" stroke-linecap="round"></path>
            <path d="M10.4361,7.522 L10.4361,19.209" id="Stroke-14" stroke="#FFFFFF" stroke-width="0.75" stroke-linecap="round"></path>
        </g>
    </g>
</svg>