<?xml version="1.0" encoding="UTF-8"?>
<svg width="19px" height="26px" viewBox="0 0 19 26" version="1.1" xmlns="http://www.w3.org/2000/svg" xmlns:xlink="http://www.w3.org/1999/xlink">
    <!-- Generator: Sketch 48.1 (47250) - http://www.bohemiancoding.com/sketch -->
    <title>icon-dining-dark</title>
    <desc>Created with Sketch.</desc>
    <defs></defs>
    <g id="Page-1" stroke="none" stroke-width="1" fill="none" fill-rule="evenodd">
        <g id="icon-dining-dark" stroke="#FFFFFF" stroke-width="0.75">
            <path d="M13.4196,0.375 L10.7376,6.127 C10.1556,7.375 9.9816,8.776 10.2396,10.141 C10.3986,10.984 10.2916,11.85 9.9316,12.622 L4.3726,23.089 C4.0186,23.756 4.3096,24.589 5.0106,24.917 C5.7116,25.243 6.5366,24.93 6.8196,24.23 L11.2676,13.238 C11.6256,12.471 12.2186,11.835 12.9656,11.42 C14.1886,10.741 15.1586,9.702 15.7456,8.445 L18.4326,2.683" id="Stroke-1"></path>
            <path d="M15.0979,1.1279 L11.9359,7.9089" id="Stroke-3"></path>
            <path d="M16.7654,1.9052 L13.6034,8.6862" id="Stroke-5"></path>
            <path d="M9.5671,20.1841 L11.1861,24.1701 C11.4771,24.8871 12.3091,25.2141 13.0101,24.8871 C13.7111,24.5601 13.9951,23.7131 13.6331,23.0291 L10.6751,17.4431" id="Stroke-7"></path>
            <path d="M8.4441,13.228 L7.9511,12.297 C7.5841,11.51 7.4701,10.629 7.6251,9.775 L7.6261,9.775 C7.6261,9.775 8.4421,7.164 7.2171,4.538 C6.0021,1.932 3.5091,0.135 1.8331,0.916 C0.1561,1.698 -0.0769,4.747 1.1461,7.369 C2.3701,9.995 4.8921,11.041 4.8921,11.041 L4.8931,11.041 C5.6481,11.477 6.2511,12.134 6.6191,12.924 L7.4801,15.043" id="Stroke-9"></path>
        </g>
    </g>
</svg>