<?xml version="1.0" encoding="UTF-8"?>
<svg width="19px" height="19px" viewBox="0 0 19 19" version="1.1" xmlns="http://www.w3.org/2000/svg" xmlns:xlink="http://www.w3.org/1999/xlink">
    <!-- Generator: Sketch 48.1 (47250) - http://www.bohemiancoding.com/sketch -->
    <title>search-black</title>
    <desc>Created with Sketch.</desc>
    <defs></defs>
    <g id="headers" stroke="none" stroke-width="1" fill="none" fill-rule="evenodd" transform="translate(-901.000000, -826.000000)">
        <g id="Group" transform="translate(901.000000, 826.000000)" fill="#000000">
            <g id="search-black">
                <path d="M12.6816376,11.8341917 L19,18.1525541 L18.1525541,19 L11.8341917,12.6816376 C10.5813822,13.7421564 8.96077854,14.3816338 7.19081692,14.3816338 C3.2194384,14.3816338 0,11.1621954 0,7.19081692 C0,3.2194384 3.2194384,0 7.19081692,0 C11.1621954,0 14.3816338,3.2194384 14.3816338,7.19081692 C14.3816338,8.96077854 13.7421564,10.5813822 12.6816376,11.8341917 Z M7.19081692,13.1831644 C10.500299,13.1831644 13.1831644,10.500299 13.1831644,7.19081692 C13.1831644,3.88133482 10.500299,1.19846949 7.19081692,1.19846949 C3.88133482,1.19846949 1.19846949,3.88133482 1.19846949,7.19081692 C1.19846949,10.500299 3.88133482,13.1831644 7.19081692,13.1831644 Z" id="cta/search-light-alt"></path>
            </g>
        </g>
    </g>
</svg>