<?xml version="1.0" encoding="UTF-8"?>
<svg width="143px" height="24px" viewBox="0 0 143 24" version="1.1" xmlns="http://www.w3.org/2000/svg" xmlns:xlink="http://www.w3.org/1999/xlink">
    <!-- Generator: Sketch 48.2 (47327) - http://www.bohemiancoding.com/sketch -->
    <title>Group</title>
    <desc>Created with Sketch.</desc>
    <defs></defs>
    <g id="Mobile" stroke="none" stroke-width="1" fill="none" fill-rule="evenodd" transform="translate(-24.000000, -136.000000)">
        <g id="Group" transform="translate(24.000000, 136.000000)" fill="#FFFFFF">
            <path d="M3.55,23 L0.58,23 L0.58,1.76 L13.84,1.76 L13.84,4.37 L3.55,4.37 L3.55,10.97 L13.18,10.97 L13.18,13.52 L3.55,13.52 L3.55,23 Z M24.88,13.79 C24.88,12.7299947 24.5600032,11.9450025 23.92,11.435 C23.2799968,10.9249974 22.4300053,10.67 21.37,10.67 C20.569996,10.67 19.8150035,10.8249984 19.105,11.135 C18.3949964,11.4450015 17.8000024,11.8399976 17.32,12.32 L15.82,10.52 C16.5200035,9.8599967 17.3749949,9.3400019 18.385,8.96 C19.395005,8.5799981 20.4799942,8.39 21.64,8.39 C22.6600051,8.39 23.5449962,8.53499855 24.295,8.825 C25.0450037,9.11500145 25.6599976,9.5099975 26.14,10.01 C26.6200024,10.5100025 26.9799988,11.0999966 27.22,11.78 C27.4600012,12.4600034 27.58,13.1899961 27.58,13.97 L27.58,20.18 C27.58,20.6600024 27.5949998,21.1649973 27.625,21.695 C27.6550001,22.2250026 27.7099996,22.6599983 27.79,23 L25.24,23 C25.0799992,22.3199966 25,21.6400034 25,20.96 L24.91,20.96 C24.3899974,21.7200038 23.7350039,22.3099979 22.945,22.73 C22.154996,23.1500021 21.2200054,23.36 20.14,23.36 C19.5799972,23.36 18.995003,23.2850007 18.385,23.135 C17.7749969,22.9849992 17.2200025,22.7400017 16.72,22.4 C16.2199975,22.0599983 15.8050016,21.6100028 15.475,21.05 C15.1449983,20.4899972 14.98,19.8000041 14.98,18.98 C14.98,17.8999946 15.2699971,17.0450032 15.85,16.415 C16.4300029,15.7849968 17.1899953,15.3050017 18.13,14.975 C19.0700047,14.6449983 20.1299941,14.4300005 21.31,14.33 C22.4900059,14.2299995 23.679994,14.18 24.88,14.18 L24.88,13.79 Z M24.19,16.22 C23.4899965,16.22 22.7650037,16.2499997 22.015,16.31 C21.2649962,16.3700003 20.585003,16.4899991 19.975,16.67 C19.3649969,16.8500009 18.860002,17.1199982 18.46,17.48 C18.059998,17.8400018 17.86,18.319997 17.86,18.92 C17.86,19.3400021 17.9449991,19.6899986 18.115,19.97 C18.2850008,20.2500014 18.5099986,20.4799991 18.79,20.66 C19.0700014,20.8400009 19.3799983,20.9649997 19.72,21.035 C20.0600017,21.1050003 20.4099982,21.14 20.77,21.14 C22.0900066,21.14 23.1049964,20.745004 23.815,19.955 C24.5250035,19.1649961 24.88,18.170006 24.88,16.97 L24.88,16.22 L24.19,16.22 Z M35.17,14.96 L35.26,14.96 L41.23,8.78 L45.01,8.78 L38.35,15.23 L45.58,23 L41.68,23 L35.26,15.62 L35.17,15.62 L35.17,23 L32.35,23 L32.35,0.32 L35.17,0.32 L35.17,14.96 Z M57.97,14.63 C57.9499999,14.0699972 57.8550008,13.5450024 57.685,13.055 C57.5149991,12.5649975 57.2650016,12.1400018 56.935,11.78 C56.6049983,11.4199982 56.1950024,11.1350011 55.705,10.925 C55.2149975,10.7149989 54.6400033,10.61 53.98,10.61 C53.379997,10.61 52.8150026,10.7149989 52.285,10.925 C51.7549973,11.1350011 51.2950019,11.4199982 50.905,11.78 C50.514998,12.1400018 50.1950012,12.5649975 49.945,13.055 C49.6949987,13.5450024 49.5500002,14.0699972 49.51,14.63 L57.97,14.63 Z M60.82,15.77 L60.82,16.25 C60.82,16.4100008 60.8100001,16.5699992 60.79,16.73 L49.51,16.73 C49.5300001,17.330003 49.6649987,17.8949974 49.915,18.425 C50.1650012,18.9550027 50.4999979,19.4149981 50.92,19.805 C51.3400021,20.1950019 51.8249972,20.4999989 52.375,20.72 C52.9250027,20.9400011 53.5099969,21.05 54.13,21.05 C55.0900048,21.05 55.9199965,20.8400021 56.62,20.42 C57.3200035,19.9999979 57.869998,19.490003 58.27,18.89 L60.25,20.48 C59.4899962,21.480005 58.5950051,22.2149976 57.565,22.685 C56.5349948,23.1550023 55.3900063,23.39 54.13,23.39 C53.0499946,23.39 52.0500046,23.2100018 51.13,22.85 C50.2099954,22.4899982 49.4200033,21.9850033 48.76,21.335 C48.0999967,20.6849968 47.5800019,19.9000046 47.2,18.98 C46.8199981,18.0599954 46.63,17.0400056 46.63,15.92 C46.63,14.8199945 46.8149981,13.8050047 47.185,12.875 C47.5550018,11.9449953 48.0699967,11.1500033 48.73,10.49 C49.3900033,9.8299967 50.1699955,9.31500185 51.07,8.945 C51.9700045,8.57499815 52.9399948,8.39 53.98,8.39 C55.0200052,8.39 55.9649957,8.5599983 56.815,8.9 C57.6650042,9.2400017 58.384997,9.7299968 58.975,10.37 C59.5650029,11.0100032 60.0199984,11.7849954 60.34,12.695 C60.6600016,13.6050045 60.82,14.6299943 60.82,15.77 Z M64.9,1.76 L72.22,1.76 C73.020004,1.76 73.819996,1.8499991 74.62,2.03 C75.420004,2.2100009 76.1349968,2.5099979 76.765,2.93 C77.3950031,3.3500021 77.904998,3.8999966 78.295,4.58 C78.6850019,5.2600034 78.88,6.1099949 78.88,7.13 C78.88,8.3100059 78.5400034,9.299996 77.86,10.1 C77.1799966,10.900004 76.2800056,11.4499985 75.16,11.75 L75.16,11.81 C75.8400034,11.8900004 76.4699971,12.0649987 77.05,12.335 C77.6300029,12.6050014 78.1299979,12.9599978 78.55,13.4 C78.9700021,13.8400022 79.2949988,14.359997 79.525,14.96 C79.7550011,15.560003 79.87,16.2299963 79.87,16.97 C79.87,17.9900051 79.6600021,18.8799962 79.24,19.64 C78.8199979,20.4000038 78.2500036,21.0249975 77.53,21.515 C76.8099964,22.0050025 75.9650048,22.3749988 74.995,22.625 C74.0249951,22.8750012 72.9900055,23 71.89,23 L64.9,23 L64.9,1.76 Z M67.87,10.73 L71.74,10.73 C72.3000028,10.73 72.8349974,10.6650006 73.345,10.535 C73.8550025,10.4049993 74.2999981,10.2050014 74.68,9.935 C75.0600019,9.66499865 75.3599989,9.32500205 75.58,8.915 C75.8000011,8.50499795 75.91,8.0100029 75.91,7.43 C75.91,6.2899943 75.4900042,5.47500245 74.65,4.985 C73.8099958,4.49499755 72.6800071,4.25 71.26,4.25 L67.87,4.25 L67.87,10.73 Z M67.87,20.48 L71.59,20.48 C72.2100031,20.48 72.8349968,20.4250005 73.465,20.315 C74.0950031,20.2049995 74.6649974,20.0100014 75.175,19.73 C75.6850025,19.4499986 76.0949984,19.0750024 76.405,18.605 C76.7150015,18.1349977 76.87,17.5400036 76.87,16.82 C76.87,15.5599937 76.4400043,14.6500028 75.58,14.09 C74.7199957,13.5299972 73.4800081,13.25 71.86,13.25 L67.87,13.25 L67.87,20.48 Z M84.01,11.84 C84.01,11.4599981 84.0000001,10.970003 83.98,10.37 C83.9599999,9.769997 83.9300002,9.2400023 83.89,8.78 L86.56,8.78 C86.6000002,9.1400018 86.6299999,9.55499765 86.65,10.025 C86.6700001,10.4950023 86.68,10.8799985 86.68,11.18 L86.77,11.18 C87.170002,10.3399958 87.7549961,9.66500255 88.525,9.155 C89.2950038,8.64499745 90.1599952,8.39 91.12,8.39 C91.5600022,8.39 91.9299985,8.4299996 92.23,8.51 L92.11,11.12 C91.709998,11.0199995 91.2800023,10.97 90.82,10.97 C90.1399966,10.97 89.5500025,11.0949988 89.05,11.345 C88.5499975,11.5950012 88.1350016,11.9299979 87.805,12.35 C87.4749983,12.7700021 87.2300008,13.2549973 87.07,13.805 C86.9099992,14.3550028 86.83,14.929997 86.83,15.53 L86.83,23 L84.01,23 L84.01,11.84 Z M103.33,13.79 C103.33,12.7299947 103.010003,11.9450025 102.37,11.435 C101.729997,10.9249974 100.880005,10.67 99.82,10.67 C99.019996,10.67 98.2650035,10.8249984 97.555,11.135 C96.8449964,11.4450015 96.2500024,11.8399976 95.77,12.32 L94.27,10.52 C94.9700035,9.8599967 95.8249949,9.3400019 96.835,8.96 C97.845005,8.5799981 98.9299942,8.39 100.09,8.39 C101.110005,8.39 101.994996,8.53499855 102.745,8.825 C103.495004,9.11500145 104.109998,9.5099975 104.59,10.01 C105.070002,10.5100025 105.429999,11.0999966 105.67,11.78 C105.910001,12.4600034 106.03,13.1899961 106.03,13.97 L106.03,20.18 C106.03,20.6600024 106.045,21.1649973 106.075,21.695 C106.105,22.2250026 106.16,22.6599983 106.24,23 L103.69,23 C103.529999,22.3199966 103.45,21.6400034 103.45,20.96 L103.36,20.96 C102.839997,21.7200038 102.185004,22.3099979 101.395,22.73 C100.604996,23.1500021 99.6700054,23.36 98.59,23.36 C98.0299972,23.36 97.445003,23.2850007 96.835,23.135 C96.2249969,22.9849992 95.6700025,22.7400017 95.17,22.4 C94.6699975,22.0599983 94.2550016,21.6100028 93.925,21.05 C93.5949983,20.4899972 93.43,19.8000041 93.43,18.98 C93.43,17.8999946 93.7199971,17.0450032 94.3,16.415 C94.8800029,15.7849968 95.6399953,15.3050017 96.58,14.975 C97.5200047,14.6449983 98.5799941,14.4300005 99.76,14.33 C100.940006,14.2299995 102.129994,14.18 103.33,14.18 L103.33,13.79 Z M102.64,16.22 C101.939996,16.22 101.215004,16.2499997 100.465,16.31 C99.7149962,16.3700003 99.035003,16.4899991 98.425,16.67 C97.8149969,16.8500009 97.310002,17.1199982 96.91,17.48 C96.509998,17.8400018 96.31,18.319997 96.31,18.92 C96.31,19.3400021 96.3949992,19.6899986 96.565,19.97 C96.7350008,20.2500014 96.9599986,20.4799991 97.24,20.66 C97.5200014,20.8400009 97.8299983,20.9649997 98.17,21.035 C98.5100017,21.1050003 98.8599982,21.14 99.22,21.14 C100.540007,21.14 101.554996,20.745004 102.265,19.955 C102.975004,19.1649961 103.33,18.170006 103.33,16.97 L103.33,16.22 L102.64,16.22 Z M113.29,8.78 C113.33,9.1400018 113.36,9.54499775 113.38,9.995 C113.4,10.4450022 113.41,10.8199985 113.41,11.12 L113.5,11.12 C113.680001,10.7399981 113.924998,10.3850017 114.235,10.055 C114.545002,9.72499835 114.899998,9.43500125 115.3,9.185 C115.700002,8.93499875 116.139998,8.7400007 116.62,8.6 C117.100002,8.4599993 117.599997,8.39 118.12,8.39 C119.040005,8.39 119.829997,8.54499845 120.49,8.855 C121.150003,9.16500155 121.699998,9.5799974 122.14,10.1 C122.580002,10.6200026 122.904999,11.2299965 123.115,11.93 C123.325001,12.6300035 123.43,13.379996 123.43,14.18 L123.43,23 L120.61,23 L120.61,15.11 C120.61,14.5299971 120.565,13.9800026 120.475,13.46 C120.385,12.9399974 120.220001,12.480002 119.98,12.08 C119.739999,11.679998 119.410002,11.3600012 118.99,11.12 C118.569998,10.8799988 118.030003,10.76 117.37,10.76 C116.249994,10.76 115.335004,11.1849957 114.625,12.035 C113.914996,12.8850043 113.56,14.0199929 113.56,15.44 L113.56,23 L110.74,23 L110.74,11.84 C110.74,11.4599981 110.73,10.970003 110.71,10.37 C110.69,9.769997 110.66,9.2400023 110.62,8.78 L113.29,8.78 Z M139.54,20.75 C138.999997,21.6100043 138.265005,22.2649977 137.335,22.715 C136.404995,23.1650022 135.430005,23.39 134.41,23.39 C133.309994,23.39 132.320004,23.195002 131.44,22.805 C130.559996,22.4149981 129.810003,21.8800034 129.19,21.2 C128.569997,20.5199966 128.090002,19.7200046 127.75,18.8 C127.409998,17.8799954 127.24,16.9000052 127.24,15.86 C127.24,14.8199948 127.409998,13.8450045 127.75,12.935 C128.090002,12.0249955 128.574997,11.2300034 129.205,10.55 C129.835003,9.8699966 130.589996,9.3400019 131.47,8.96 C132.350004,8.5799981 133.319995,8.39 134.38,8.39 C135.540006,8.39 136.549996,8.63499755 137.41,9.125 C138.270004,9.61500245 138.949997,10.2099965 139.45,10.91 L139.51,10.91 L139.51,0.32 L142.33,0.32 L142.33,23 L139.6,23 L139.6,20.75 L139.54,20.75 Z M130.18,15.86 C130.18,16.5200033 130.279999,17.1599969 130.48,17.78 C130.680001,18.4000031 130.979998,18.9499976 131.38,19.43 C131.780002,19.9100024 132.269997,20.2949986 132.85,20.585 C133.430003,20.8750015 134.109996,21.02 134.89,21.02 C135.610004,21.02 136.264997,20.8800014 136.855,20.6 C137.445003,20.3199986 137.949998,19.9450023 138.37,19.475 C138.790002,19.0049977 139.114999,18.4600031 139.345,17.84 C139.575001,17.2199969 139.69,16.5700034 139.69,15.89 C139.69,15.2099966 139.575001,14.5600031 139.345,13.94 C139.114999,13.3199969 138.790002,12.7700024 138.37,12.29 C137.949998,11.8099976 137.445003,11.4300014 136.855,11.15 C136.264997,10.8699986 135.610004,10.73 134.89,10.73 C134.109996,10.73 133.430003,10.8699986 132.85,11.15 C132.269997,11.4300014 131.780002,11.8099976 131.38,12.29 C130.979998,12.7700024 130.680001,13.3199969 130.48,13.94 C130.279999,14.5600031 130.18,15.1999967 130.18,15.86 Z" id="FakeBrand"></path>
        </g>
    </g>
</svg>