<?xml version="1.0" encoding="UTF-8"?>
<svg width="32px" height="11px" viewBox="0 0 32 11" version="1.1" xmlns="http://www.w3.org/2000/svg" xmlns:xlink="http://www.w3.org/1999/xlink">
    <!-- Generator: Sketch 48.1 (47250) - http://www.bohemiancoding.com/sketch -->
    <title>Ten Logo</title>
    <desc>Created with Sketch.</desc>
    <defs></defs>
    <g id="headers" stroke="none" stroke-width="1" fill="none" fill-rule="evenodd" transform="translate(-970.000000, -1526.000000)">
        <g id="Group-4" transform="translate(864.000000, 1524.000000)" fill="#FFFFFF">
            <g id="Ten-Logo" transform="translate(106.000000, 2.000000)">
                <polygon id="Fill-2" points="29.4696743 0 29.4696743 7.2191972 23.4058267 0 21 0 21 11 23.530902 11 23.530902 3.55547934 29.790432 11 32 11 32 0"></polygon>
                <path d="M15.0295095,1.95188813 C16.5496643,1.95188813 17.5539414,3.12492244 17.7541755,4.61876163 L12.3703137,4.61876163 C12.6226375,3.05252194 13.6214188,1.95188813 15.0295095,1.95188813 M20,5.66917826 C20,2.63469551 18.3364794,0 15.0488638,0 C12.0940957,0 10,2.47526815 10,5.49000532 L10,5.52925273 C10,8.78434979 12.3096222,11 15.303338,11 C17.2017395,11 18.551767,10.2206586 19.5302382,9.0237346 L18.1407852,7.76537984 C17.3188215,8.58396862 16.4968579,9.0237346 15.3427636,9.0237346 C13.8543882,9.0237346 12.6850016,8.11031823 12.3911018,6.47338445 L19.9684595,6.47338445 C19.9880529,6.23399965 20,6.02630529 20,5.66917826" id="Fill-3"></path>
                <polygon id="Fill-1" points="0 0 0 2.03298215 3.68300111 2.03298215 3.68300111 11 6.31589147 11 6.31589147 2.03298215 10 2.03298215 10 0"></polygon>
            </g>
        </g>
    </g>
</svg>